<?xml version="1.0" encoding="utf-8"?>
<!-- Generator: Adobe Illustrator 26.3.0, SVG Export Plug-In . SVG Version: 6.00 Build 0)  -->
<svg version="1.1" id="Layer_1" xmlns="http://www.w3.org/2000/svg" xmlns:xlink="http://www.w3.org/1999/xlink" x="0px" y="0px"
	 viewBox="0 0 100 100" style="enable-background:new 0 0 100 100;" xml:space="preserve">
<style type="text/css">
	.st0{fill:#FFFFFF;}
</style>
<rect x="-3.6" y="-3.2" class="st0" width="108.2" height="108"/>
<g>
	<path d="M10,74.7c0-16.5,0-33,0-49.4c26.7,0,53.4,0,80.1,0c0,16.5,0,32.9,0,49.4C63.4,74.7,36.7,74.7,10,74.7z M10.5,74.2
		c26.3,0,52.7,0,79,0c0-16.1,0-32.3,0-48.4c-26.3,0-52.7,0-79,0C10.5,41.9,10.5,58.1,10.5,74.2z"/>
	<path d="M81.4,44.1c-0.9,0-1.7,0-2.6,0c0-2.7,0-5.4,0-8.1c0,0-0.1,0-0.1,0c-0.2,0.4-0.4,0.7-0.5,1.1c-1.1,2.2-2.1,4.5-3.2,6.7
		c-0.1,0.2-0.2,0.3-0.4,0.3c-0.6,0-1.3,0-1.9,0c-0.2,0-0.4-0.1-0.5-0.3c-1.2-2.5-2.4-5-3.5-7.6c0-0.1-0.1-0.2-0.2-0.3
		c0,2.8,0,5.5,0,8.2c-0.9,0-1.7,0-2.6,0c0-3.4,0-6.8,0-10.3c0.1,0,0.2,0,0.4,0c1.2,0,2.4,0,3.5,0c0.3,0,0.5,0.1,0.6,0.4
		c1,2.3,2.1,4.6,3.1,6.9c0,0.1,0.1,0.2,0.1,0.3c0.4-0.8,0.7-1.6,1.1-2.3c0.7-1.6,1.5-3.3,2.2-4.9c0.1-0.2,0.2-0.3,0.5-0.3
		c1.2,0,2.4,0,3.6,0c0.1,0,0.2,0,0.3,0C81.4,37.2,81.4,40.6,81.4,44.1z"/>
	<path d="M37.5,57.8c-0.9,0-1.8,0-2.7,0c0-3.6,0-7.2,0-10.8c0.9,0,1.8,0,2.6,0c0.1,0,0.2,0.1,0.3,0.2c2.5,2.4,5,4.8,7.5,7.2
		c0,0,0.1,0,0.1,0.1c0-2.5,0-5,0-7.5c0.9,0,1.8,0,2.7,0c0,3.6,0,7.2,0,10.8c-0.5,0-1-0.1-1.5,0c-0.9,0.1-1.5-0.3-2.1-0.9
		c-2.2-2.2-4.5-4.4-6.8-6.6c0,0-0.1,0-0.1-0.1C37.5,52.9,37.5,55.3,37.5,57.8z"/>
	<path d="M58.2,46.6c1.7,0,3.2,0.3,4.7,1.2c3,1.9,3.5,5.6,1.1,8.2c-1,1.1-2.3,1.7-3.7,1.9c-2,0.4-4,0.3-5.9-0.6
		c-1.8-0.8-3-2.1-3.4-4c-0.4-2.3,0.4-4.1,2.3-5.4c1.2-0.8,2.5-1.2,4-1.3C57.7,46.6,57.9,46.6,58.2,46.6z M58.2,55.9
		c0.9,0,1.8-0.2,2.6-0.6c2.2-1.2,2.4-4.3,0.3-5.6c-1.9-1.1-3.9-1.1-5.8,0c-2.2,1.3-2,4.4,0.2,5.6C56.4,55.7,57.3,55.9,58.2,55.9z"/>
	<path d="M71.1,54.2c0,1.3,0,2.5,0,3.7c-0.9,0-1.8,0-2.7,0c0-3.6,0-7.2,0-10.9c0.1,0,0.2,0,0.3,0c3.1,0,6.3,0,9.4,0
		c1.6,0,3,0.9,3.4,2.3c0.6,2-0.2,3.9-2.1,4.6c-0.5,0.2-1,0.3-1.5,0.3c-2.1,0-4.2,0-6.3,0C71.4,54.2,71.3,54.2,71.1,54.2z M71.1,51.8
		c0.1,0,0.2,0,0.3,0c2,0,4.1,0,6.1,0c0.1,0,0.3,0,0.4,0c0.5-0.1,1-0.5,1-1.1c0.1-0.8-0.4-1.3-1.3-1.3c-2.1,0-4.2,0-6.3,0
		c-0.1,0-0.2,0-0.3,0C71.1,50.2,71.1,51,71.1,51.8z"/>
	<path d="M21.2,36.9c0,2.4,0,4.8,0,7.2c-0.9,0-1.7,0-2.6,0c0-3.4,0-6.8,0-10.3c0.7,0,1.4,0,2.1,0c0.4,0,0.7,0.1,0.9,0.4
		c2.3,2.3,4.6,4.5,7,6.8c0-2.4,0-4.8,0-7.1c0.9,0,1.7,0,2.6,0c0,3.4,0,6.8,0,10.3c-0.8,0-1.6,0-2.5,0c-0.1,0-0.2-0.1-0.3-0.2
		c-2.2-2.1-4.4-4.2-6.5-6.3C21.7,37.4,21.5,37.2,21.2,36.9z"/>
	<path d="M21.1,57.8c-0.9,0-1.8,0-2.7,0c0-3.6,0-7.2,0-10.8c0.9,0,1.8,0,2.7,0c0,1.7,0,3.4,0,5.1c0.2-0.1,0.2-0.2,0.3-0.2
		c2.1-1.6,4.2-3.1,6.3-4.7c0.2-0.1,0.4-0.2,0.6-0.2c1.2,0,2.3,0,3.5,0.1c-1.9,1.4-3.8,2.9-5.8,4.3c2.1,2.2,4.2,4.3,6.3,6.5
		c-0.1,0-0.2,0-0.3,0c-0.9,0-1.8,0-2.7,0c-0.3,0-0.5-0.1-0.6-0.3c-1.5-1.5-2.9-3-4.4-4.5c-0.1-0.1-0.2-0.2-0.2-0.3
		C24,52.9,23.9,53,23.9,53c-0.8,0.6-1.7,1.3-2.5,1.9c-0.2,0.1-0.3,0.3-0.3,0.5c0,0.7,0,1.4,0,2.1C21.1,57.6,21.1,57.7,21.1,57.8z"/>
	<path d="M48.6,44.1c-0.9,0-1.8,0-2.6,0c-0.1,0-0.2-0.1-0.3-0.2c-0.3-0.5-0.6-1.1-1-1.6c-0.1-0.2-0.2-0.2-0.4-0.2
		c-2.2,0-4.5,0-6.7,0c-0.2,0-0.3,0.1-0.4,0.2c-0.3,0.6-0.6,1.1-0.9,1.6c-0.1,0.1-0.2,0.2-0.3,0.2c-0.9,0-1.7,0-2.6,0
		c0.1-0.1,0.1-0.2,0.2-0.3c1.9-3.3,3.7-6.5,5.6-9.8c0.1-0.2,0.2-0.2,0.4-0.2c0.9,0,1.9,0,2.8,0c0.1,0,0.3,0.1,0.4,0.2
		c1.9,3.3,3.8,6.6,5.7,9.9C48.6,43.9,48.6,44,48.6,44.1z M38.7,39.8c1.6,0,3.1,0,4.7,0c-0.8-1.4-1.5-2.7-2.3-4
		C40.3,37.1,39.5,38.4,38.7,39.8z"/>
	<path d="M50.7,33.8c0.9,0,1.7,0,2.6,0c0,0.1,0,0.2,0,0.3c0,1.6,0,3.1,0,4.7c0,2.1,1.3,3.4,3.4,3.4c0.6,0,1.1-0.1,1.7-0.2
		c1.3-0.4,2-1.6,2-3c0-1.6,0-3.2,0-4.7c0-0.1,0-0.3,0-0.4c0.9,0,1.7,0,2.6,0c0,0.1,0,0.2,0,0.3c0,1.5,0,3.1,0,4.6
		c0.1,2.3-1.3,4.4-3.7,5.2c-2.3,0.8-4.5,0.6-6.6-0.9c-1.3-1-2-2.4-2-4.1C50.7,37.3,50.7,35.6,50.7,33.8z"/>
	<path d="M81.2,65.5c0-1.2,0-2.4,0-3.6c0.1,0,0.3,0,0.4,0c0,1.4,0,2.9,0,4.3c-0.3,0.1-0.5,0-0.7-0.3c-0.6-1-1.3-2-1.9-3
		c-0.1-0.1-0.1-0.2-0.2-0.3c0,1.3,0,2.5,0,3.7c-0.1,0-0.3,0-0.4,0c0-1.4,0-2.9,0-4.3c0.3-0.1,0.5,0,0.6,0.2c0.6,1,1.3,2.1,1.9,3.1
		C81,65.3,81.1,65.4,81.2,65.5C81.2,65.5,81.2,65.5,81.2,65.5z"/>
	<path d="M36.4,61.8c0.1,0,0.3,0,0.4,0c0,1.4,0,2.9,0,4.3c-0.3,0.1-0.5,0-0.7-0.3c-0.6-1-1.2-2-1.8-3c-0.1-0.1-0.1-0.2-0.3-0.3
		c0,1.2,0,2.4,0,3.6c-0.2,0-0.3,0-0.4,0c0-1.4,0-2.9,0-4.3c0.3-0.1,0.5,0,0.6,0.2c0.6,1.1,1.3,2.1,2,3.2c0.1,0.1,0.1,0.2,0.2,0.3
		C36.4,64.3,36.4,63.1,36.4,61.8z"/>
	<path d="M73.7,63.9c0,0.3,0,0.4,0,0.6c-0.2,1.2-0.9,1.8-2,1.7c-1,0-1.7-0.7-1.8-1.9c0-0.4,0-0.9,0.1-1.3c0.2-0.9,0.9-1.4,1.9-1.4
		c0.9,0,1.5,0.6,1.8,1.5C73.7,63.4,73.7,63.7,73.7,63.9z M70.2,63.9c0.1,0.4,0.1,0.7,0.2,1c0.2,0.6,0.7,0.9,1.3,0.9
		c0.6,0,1.1-0.3,1.3-0.9c0.3-0.7,0.3-1.4,0-2.1c-0.2-0.5-0.7-0.8-1.3-0.8c-0.6,0-1,0.3-1.3,0.8C70.4,63.2,70.3,63.6,70.2,63.9z"/>
	<path d="M41.6,66.1c0-1.5,0-2.9,0-4.3c0.6,0,1.2-0.1,1.8,0c0.9,0.1,1.4,0.7,1.5,1.6c0.1,0.4,0,0.9,0,1.3c-0.2,0.9-0.8,1.3-1.8,1.4
		C42.6,66.2,42.1,66.1,41.6,66.1z M42,62.2c0,1.2,0,2.4,0,3.6c0.4,0,0.7,0,1.1,0c0.6-0.1,1.2-0.3,1.3-1c0.1-0.4,0.1-0.9,0.1-1.3
		c-0.1-0.7-0.6-1.1-1.2-1.2C42.9,62.2,42.5,62.2,42,62.2z"/>
	<path d="M48.9,66.1c0.6-1.4,1.1-2.8,1.7-4.1c0-0.1,0.2-0.1,0.3-0.1c0.1,0,0.3,0,0.3,0.1c0.6,1.4,1.1,2.7,1.6,4.1c0,0,0,0,0,0.1
		c-0.3,0.1-0.4,0-0.5-0.3c-0.1-0.3-0.2-0.7-0.4-0.8c-0.2-0.1-0.6,0-0.9,0c-0.4,0-0.8,0-1.2,0c-0.1,0.3-0.2,0.6-0.3,0.9
		C49.3,66.1,49.2,66.2,48.9,66.1z M51.7,64.6c-0.3-0.8-0.6-1.6-0.9-2.4c-0.3,0.8-0.6,1.6-0.9,2.4C50.5,64.6,51.1,64.6,51.7,64.6z"/>
	<path d="M25.5,61.8c0.1,0,0.2,0,0.4,0c0,0.1,0,0.2,0,0.3c0,0.7,0,1.5,0,2.2c0,0.2,0,0.4,0.1,0.6c0.1,0.6,0.6,1,1.2,0.9
		c0.6,0,1.1-0.4,1.1-1c0-0.4,0-0.8,0-1.2c0-0.6,0-1.1,0-1.7c0,0,0,0,0-0.1c0.1,0,0.2,0,0.4,0c0,1,0,2,0,3c-0.1,0.9-0.7,1.4-1.6,1.4
		c-0.9,0-1.5-0.5-1.6-1.4C25.4,63.9,25.5,62.9,25.5,61.8z"/>
	<path d="M59.9,62.8c-0.1,0-0.3,0-0.4,0c-0.1-0.5-0.5-0.7-1-0.7c-0.6,0-1,0.2-1.2,0.7c-0.3,0.8-0.3,1.5,0,2.3
		c0.2,0.5,0.6,0.7,1.1,0.7c0.5,0,0.9-0.2,1.1-0.6c0-0.1,0.3-0.1,0.4-0.2c0.1,0.6-0.5,1.1-1.1,1.2c-0.9,0.2-1.7-0.3-2-1.2
		c-0.3-0.8-0.3-1.6,0.1-2.3c0.4-0.9,1.6-1.3,2.5-0.8C59.7,62.1,59.9,62.4,59.9,62.8z"/>
	<path d="M18.4,61.8c0.8,0,1.6,0,2.4,0c0,0.1,0,0.2,0,0.3c-0.7,0-1.3,0-2,0c0,0.5,0,1,0,1.5c0.6,0,1.3,0,1.9,0c0,0.1,0,0.3,0,0.4
		c-0.6,0-1.3,0-2,0c0,0.7,0,1.4,0,2.1c-0.1,0-0.3,0-0.4,0C18.4,64.7,18.4,63.3,18.4,61.8z"/>
	<path d="M65,66.1c-0.1,0-0.2,0-0.4,0c0-1.4,0-2.9,0-4.3c0.1,0,0.2,0,0.4,0C65,63.2,65,64.7,65,66.1z"/>
	<path d="M71.5,61.4c0.5-0.9,0.5-0.9,0.9-0.8C72.3,60.9,71.8,61.4,71.5,61.4z"/>
</g>
</svg>
